{
    "asset" : {
        "generator" : "Khronos glTF Blender I/O v3.2.43",
        "version" : "2.0"
    },
    "scene" : 0,
    "scenes" : [
        {
            "name" : "Scene",
            "nodes" : [
                0,
                1,
                2,
                3,
                4,
                5,
                6,
                7,
                8
            ]
        }
    ],
    "nodes" : [
        {
            "mesh" : 0,
            "name" : "building_A",
            "rotation" : [
                0,
                1,
                0,
                0
            ],
            "scale" : [
                20,
                20,
                20
            ],
            "translation" : [
                30,
                0,
                40.869232177734375
            ]
        },
        {
            "mesh" : 1,
            "name" : "building_A.001",
            "rotation" : [
                0,
                1,
                0,
                0
            ],
            "scale" : [
                20,
                20,
                20
            ],
            "translation" : [
                -30,
                0,
                40.869232177734375
            ]
        },
        {
            "mesh" : 2,
            "name" : "building_A.002",
            "rotation" : [
                0,
                1,
                0,
                0
            ],
            "scale" : [
                20,
                20,
                20
            ],
            "translation" : [
                -90.29810333251953,
                0,
                40.869232177734375
            ]
        },
        {
            "mesh" : 3,
            "name" : "building_A.003",
            "rotation" : [
                0,
                -0.0024301549419760704,
                0,
                0.9999970197677612
            ],
            "scale" : [
                20,
                20,
                20
            ],
            "translation" : [
                30.098655700683594,
                0,
                -40.8169059753418
            ]
        },
        {
            "mesh" : 4,
            "name" : "building_A.004",
            "rotation" : [
                0,
                -0.0024301549419760704,
                0,
                0.9999970197677612
            ],
            "scale" : [
                20,
                20,
                20
            ],
            "translation" : [
                -30.1987361907959,
                0,
                -41.1099739074707
            ]
        },
        {
            "mesh" : 5,
            "name" : "building_A.005",
            "rotation" : [
                0,
                -0.0024301549419760704,
                0,
                0.9999970197677612
            ],
            "scale" : [
                20,
                20,
                20
            ],
            "translation" : [
                -90.19802856445312,
                0,
                -41.401588439941406
            ]
        },
        {
            "mesh" : 6,
            "name" : "build_ground.001",
            "rotation" : [
                0,
                -0.0024301549419760704,
                0,
                0.9999970197677612
            ],
            "scale" : [
                20,
                20,
                20
            ],
            "translation" : [
                -90.19802856445312,
                0,
                -41.401588439941406
            ]
        },
        {
            "mesh" : 7,
            "name" : "build_ground",
            "rotation" : [
                0,
                -0.0024301549419760704,
                0,
                0.9999970197677612
            ],
            "scale" : [
                20,
                20,
                20
            ],
            "translation" : [
                -90.19802856445312,
                0,
                -41.401588439941406
            ]
        },
        {
            "mesh" : 8,
            "name" : "building_A.006",
            "rotation" : [
                0,
                -0.0024301549419760704,
                0,
                0.9999970197677612
            ],
            "scale" : [
                20,
                20,
                20
            ],
            "translation" : [
                -90.19802856445312,
                0,
                -41.401588439941406
            ]
        }
    ],
    "materials" : [
        {
            "name" : "citybits_texture",
            "pbrMetallicRoughness" : {
                "baseColorTexture" : {
                    "index" : 0
                },
                "metallicFactor" : 0,
                "roughnessFactor" : 0.4000000059604645
            }
        },
        {
            "name" : "citybits_texture.001",
            "pbrMetallicRoughness" : {
                "baseColorTexture" : {
                    "index" : 1
                },
                "metallicFactor" : 0,
                "roughnessFactor" : 0.4000000059604645
            }
        },
        {
            "name" : "citybits_texture.002",
            "pbrMetallicRoughness" : {
                "baseColorTexture" : {
                    "index" : 2
                },
                "metallicFactor" : 0,
                "roughnessFactor" : 0.4000000059604645
            }
        },
        {
            "name" : "citybits_texture.003",
            "pbrMetallicRoughness" : {
                "baseColorTexture" : {
                    "index" : 3
                },
                "metallicFactor" : 0,
                "roughnessFactor" : 0.4000000059604645
            }
        },
        {
            "name" : "citybits_texture.004",
            "pbrMetallicRoughness" : {
                "baseColorTexture" : {
                    "index" : 4
                },
                "metallicFactor" : 0,
                "roughnessFactor" : 0.4000000059604645
            }
        },
        {
            "name" : "citybits_texture.005",
            "pbrMetallicRoughness" : {
                "baseColorTexture" : {
                    "index" : 5
                },
                "metallicFactor" : 0,
                "roughnessFactor" : 0.4000000059604645
            }
        }
    ],
    "meshes" : [
        {
            "name" : "Cube.938",
            "primitives" : [
                {
                    "attributes" : {
                        "POSITION" : 0,
                        "NORMAL" : 1,
                        "TEXCOORD_0" : 2
                    },
                    "indices" : 3,
                    "material" : 0
                }
            ]
        },
        {
            "name" : "Cube.001",
            "primitives" : [
                {
                    "attributes" : {
                        "POSITION" : 4,
                        "NORMAL" : 5,
                        "TEXCOORD_0" : 6
                    },
                    "indices" : 3,
                    "material" : 1
                }
            ]
        },
        {
            "name" : "Cube.002",
            "primitives" : [
                {
                    "attributes" : {
                        "POSITION" : 7,
                        "NORMAL" : 8,
                        "TEXCOORD_0" : 9
                    },
                    "indices" : 3,
                    "material" : 2
                }
            ]
        },
        {
            "name" : "Cube.003",
            "primitives" : [
                {
                    "attributes" : {
                        "POSITION" : 10,
                        "NORMAL" : 11,
                        "TEXCOORD_0" : 12
                    },
                    "indices" : 3,
                    "material" : 3
                }
            ]
        },
        {
            "name" : "Cube.004",
            "primitives" : [
                {
                    "attributes" : {
                        "POSITION" : 13,
                        "NORMAL" : 14,
                        "TEXCOORD_0" : 15
                    },
                    "indices" : 3,
                    "material" : 4
                }
            ]
        },
        {
            "name" : "Cube.005",
            "primitives" : [
                {
                    "attributes" : {
                        "POSITION" : 16,
                        "NORMAL" : 17,
                        "TEXCOORD_0" : 18
                    },
                    "indices" : 19,
                    "material" : 5
                }
            ]
        },
        {
            "name" : "Cube.006",
            "primitives" : [
                {
                    "attributes" : {
                        "POSITION" : 20,
                        "NORMAL" : 21,
                        "TEXCOORD_0" : 22
                    },
                    "indices" : 23,
                    "material" : 5
                }
            ]
        },
        {
            "name" : "Cube.007",
            "primitives" : [
                {
                    "attributes" : {
                        "POSITION" : 24,
                        "NORMAL" : 25,
                        "TEXCOORD_0" : 26
                    },
                    "indices" : 27,
                    "material" : 5
                }
            ]
        },
        {
            "name" : "Cube.008",
            "primitives" : [
                {
                    "attributes" : {
                        "POSITION" : 28,
                        "NORMAL" : 29,
                        "TEXCOORD_0" : 30
                    },
                    "indices" : 31,
                    "material" : 5
                }
            ]
        }
    ],
    "textures" : [
        {
            "sampler" : 0,
            "source" : 0
        },
        {
            "sampler" : 0,
            "source" : 0
        },
        {
            "sampler" : 0,
            "source" : 0
        },
        {
            "sampler" : 0,
            "source" : 0
        },
        {
            "sampler" : 0,
            "source" : 0
        },
        {
            "sampler" : 0,
            "source" : 0
        }
    ],
    "images" : [
        {
            "bufferView" : 4,
            "mimeType" : "image/png",
            "name" : "citybits_texture"
        }
    ],
    "accessors" : [
        {
            "bufferView" : 0,
            "componentType" : 5126,
            "count" : 1638,
            "max" : [
                1,
                1.6499998569488525,
                1
            ],
            "min" : [
                -1,
                0,
                -1
            ],
            "type" : "VEC3"
        },
        {
            "bufferView" : 1,
            "componentType" : 5126,
            "count" : 1638,
            "type" : "VEC3"
        },
        {
            "bufferView" : 2,
            "componentType" : 5126,
            "count" : 1638,
            "type" : "VEC2"
        },
        {
            "bufferView" : 3,
            "componentType" : 5123,
            "count" : 2484,
            "type" : "SCALAR"
        },
        {
            "bufferView" : 5,
            "componentType" : 5126,
            "count" : 1638,
            "max" : [
                1,
                1.6499998569488525,
                1
            ],
            "min" : [
                -1,
                0,
                -1
            ],
            "type" : "VEC3"
        },
        {
            "bufferView" : 6,
            "componentType" : 5126,
            "count" : 1638,
            "type" : "VEC3"
        },
        {
            "bufferView" : 7,
            "componentType" : 5126,
            "count" : 1638,
            "type" : "VEC2"
        },
        {
            "bufferView" : 8,
            "componentType" : 5126,
            "count" : 1638,
            "max" : [
                1,
                1.6499998569488525,
                1
            ],
            "min" : [
                -1,
                0,
                -1
            ],
            "type" : "VEC3"
        },
        {
            "bufferView" : 9,
            "componentType" : 5126,
            "count" : 1638,
            "type" : "VEC3"
        },
        {
            "bufferView" : 10,
            "componentType" : 5126,
            "count" : 1638,
            "type" : "VEC2"
        },
        {
            "bufferView" : 11,
            "componentType" : 5126,
            "count" : 1638,
            "max" : [
                1,
                1.6499998569488525,
                1
            ],
            "min" : [
                -1,
                0,
                -1
            ],
            "type" : "VEC3"
        },
        {
            "bufferView" : 12,
            "componentType" : 5126,
            "count" : 1638,
            "type" : "VEC3"
        },
        {
            "bufferView" : 13,
            "componentType" : 5126,
            "count" : 1638,
            "type" : "VEC2"
        },
        {
            "bufferView" : 14,
            "componentType" : 5126,
            "count" : 1638,
            "max" : [
                1,
                1.6499998569488525,
                1
            ],
            "min" : [
                -1,
                0,
                -1
            ],
            "type" : "VEC3"
        },
        {
            "bufferView" : 15,
            "componentType" : 5126,
            "count" : 1638,
            "type" : "VEC3"
        },
        {
            "bufferView" : 16,
            "componentType" : 5126,
            "count" : 1638,
            "type" : "VEC2"
        },
        {
            "bufferView" : 17,
            "componentType" : 5126,
            "count" : 939,
            "max" : [
                0.6033698320388794,
                1.6499998569488525,
                0.8000000715255737
            ],
            "min" : [
                -0.6033698320388794,
                0.09993039071559906,
                -0.6499999761581421
            ],
            "type" : "VEC3"
        },
        {
            "bufferView" : 18,
            "componentType" : 5126,
            "count" : 939,
            "type" : "VEC3"
        },
        {
            "bufferView" : 19,
            "componentType" : 5126,
            "count" : 939,
            "type" : "VEC2"
        },
        {
            "bufferView" : 20,
            "componentType" : 5123,
            "count" : 1305,
            "type" : "SCALAR"
        },
        {
            "bufferView" : 21,
            "componentType" : 5126,
            "count" : 96,
            "max" : [
                1,
                0.09999998658895493,
                1
            ],
            "min" : [
                -1,
                0,
                -1
            ],
            "type" : "VEC3"
        },
        {
            "bufferView" : 22,
            "componentType" : 5126,
            "count" : 96,
            "type" : "VEC3"
        },
        {
            "bufferView" : 23,
            "componentType" : 5126,
            "count" : 96,
            "type" : "VEC2"
        },
        {
            "bufferView" : 24,
            "componentType" : 5123,
            "count" : 180,
            "type" : "SCALAR"
        },
        {
            "bufferView" : 25,
            "componentType" : 5126,
            "count" : 264,
            "max" : [
                0.8977495431900024,
                0.32459503412246704,
                0.8962223529815674
            ],
            "min" : [
                0.7622543573379517,
                0.09999997168779373,
                0.7649016380310059
            ],
            "type" : "VEC3"
        },
        {
            "bufferView" : 26,
            "componentType" : 5126,
            "count" : 264,
            "type" : "VEC3"
        },
        {
            "bufferView" : 27,
            "componentType" : 5126,
            "count" : 264,
            "type" : "VEC2"
        },
        {
            "bufferView" : 28,
            "componentType" : 5123,
            "count" : 516,
            "type" : "SCALAR"
        },
        {
            "bufferView" : 29,
            "componentType" : 5126,
            "count" : 339,
            "max" : [
                -0.5913031101226807,
                0.417279988527298,
                0.2640719413757324
            ],
            "min" : [
                -0.944101095199585,
                0.09750746190547943,
                -0.501521110534668
            ],
            "type" : "VEC3"
        },
        {
            "bufferView" : 30,
            "componentType" : 5126,
            "count" : 339,
            "type" : "VEC3"
        },
        {
            "bufferView" : 31,
            "componentType" : 5126,
            "count" : 339,
            "type" : "VEC2"
        },
        {
            "bufferView" : 32,
            "componentType" : 5123,
            "count" : 483,
            "type" : "SCALAR"
        }
    ],
    "bufferViews" : [
        {
            "buffer" : 0,
            "byteLength" : 19656,
            "byteOffset" : 0
        },
        {
            "buffer" : 0,
            "byteLength" : 19656,
            "byteOffset" : 19656
        },
        {
            "buffer" : 0,
            "byteLength" : 13104,
            "byteOffset" : 39312
        },
        {
            "buffer" : 0,
            "byteLength" : 4968,
            "byteOffset" : 52416
        },
        {
            "buffer" : 0,
            "byteLength" : 19885,
            "byteOffset" : 57384
        },
        {
            "buffer" : 0,
            "byteLength" : 19656,
            "byteOffset" : 77272
        },
        {
            "buffer" : 0,
            "byteLength" : 19656,
            "byteOffset" : 96928
        },
        {
            "buffer" : 0,
            "byteLength" : 13104,
            "byteOffset" : 116584
        },
        {
            "buffer" : 0,
            "byteLength" : 19656,
            "byteOffset" : 129688
        },
        {
            "buffer" : 0,
            "byteLength" : 19656,
            "byteOffset" : 149344
        },
        {
            "buffer" : 0,
            "byteLength" : 13104,
            "byteOffset" : 169000
        },
        {
            "buffer" : 0,
            "byteLength" : 19656,
            "byteOffset" : 182104
        },
        {
            "buffer" : 0,
            "byteLength" : 19656,
            "byteOffset" : 201760
        },
        {
            "buffer" : 0,
            "byteLength" : 13104,
            "byteOffset" : 221416
        },
        {
            "buffer" : 0,
            "byteLength" : 19656,
            "byteOffset" : 234520
        },
        {
            "buffer" : 0,
            "byteLength" : 19656,
            "byteOffset" : 254176
        },
        {
            "buffer" : 0,
            "byteLength" : 13104,
            "byteOffset" : 273832
        },
        {
            "buffer" : 0,
            "byteLength" : 11268,
            "byteOffset" : 286936
        },
        {
            "buffer" : 0,
            "byteLength" : 11268,
            "byteOffset" : 298204
        },
        {
            "buffer" : 0,
            "byteLength" : 7512,
            "byteOffset" : 309472
        },
        {
            "buffer" : 0,
            "byteLength" : 2610,
            "byteOffset" : 316984
        },
        {
            "buffer" : 0,
            "byteLength" : 1152,
            "byteOffset" : 319596
        },
        {
            "buffer" : 0,
            "byteLength" : 1152,
            "byteOffset" : 320748
        },
        {
            "buffer" : 0,
            "byteLength" : 768,
            "byteOffset" : 321900
        },
        {
            "buffer" : 0,
            "byteLength" : 360,
            "byteOffset" : 322668
        },
        {
            "buffer" : 0,
            "byteLength" : 3168,
            "byteOffset" : 323028
        },
        {
            "buffer" : 0,
            "byteLength" : 3168,
            "byteOffset" : 326196
        },
        {
            "buffer" : 0,
            "byteLength" : 2112,
            "byteOffset" : 329364
        },
        {
            "buffer" : 0,
            "byteLength" : 1032,
            "byteOffset" : 331476
        },
        {
            "buffer" : 0,
            "byteLength" : 4068,
            "byteOffset" : 332508
        },
        {
            "buffer" : 0,
            "byteLength" : 4068,
            "byteOffset" : 336576
        },
        {
            "buffer" : 0,
            "byteLength" : 2712,
            "byteOffset" : 340644
        },
        {
            "buffer" : 0,
            "byteLength" : 966,
            "byteOffset" : 343356
        }
    ],
    "samplers" : [
        {
            "magFilter" : 9729,
            "minFilter" : 9987
        }
    ],
    "buffers" : [
        {
            "byteLength" : 344324,
            "uri" : "data:application/octet-stream;base64,"
        }
    ]
}
